<svg viewBox="0 0 23 23" fill="#05009C" xmlns="http://www.w3.org/2000/svg">
<path d="M8.15367 16.3073C5.87678 16.3073 3.94856 15.5177 2.369 13.9383C0.789666 12.3588 0 10.4306 0 8.15367C0 5.87678 0.789666 3.94856 2.369 2.369C3.94856 0.789667 5.87678 0 8.15367 0C10.4306 0 12.3588 0.789667 13.9383 2.369C15.5177 3.94856 16.3073 5.87678 16.3073 8.15367C16.3073 9.10589 16.1476 10.0153 15.828 10.882C15.5082 11.7487 15.0817 12.5024 14.5483 13.1433L22.2203 20.8153C22.405 20.9998 22.4994 21.2318 22.5037 21.5113C22.5079 21.7909 22.4134 22.0272 22.2203 22.2203C22.0272 22.4134 21.793 22.51 21.5177 22.51C21.2426 22.51 21.0084 22.4134 20.8153 22.2203L13.1433 14.5483C12.4767 15.0988 11.71 15.5296 10.8433 15.8407C9.97667 16.1518 9.08011 16.3073 8.15367 16.3073ZM8.15367 14.3077C9.87167 14.3077 11.3268 13.7114 12.519 12.519C13.7114 11.3268 14.3077 9.87167 14.3077 8.15367C14.3077 6.43567 13.7114 4.98055 12.519 3.78833C11.3268 2.59589 9.87167 1.99967 8.15367 1.99967C6.43567 1.99967 4.98056 2.59589 3.78833 3.78833C2.59589 4.98055 1.99967 6.43567 1.99967 8.15367C1.99967 9.87167 2.59589 11.3268 3.78833 12.519C4.98056 13.7114 6.43567 14.3077 8.15367 14.3077Z"/>
</svg>
